<svg xmlns="http://www.w3.org/2000/svg" width="200" height="171" viewBox="0 0 200 171" version="1.1"><path d="M 51.750 0.750 C 78.288 0.898, 121.713 0.898, 148.250 0.750 C 174.788 0.602, 153.075 0.480, 100 0.480 C 46.925 0.480, 25.213 0.602, 51.750 0.750 M 0.158 6 C 0.158 7.375, 0.385 7.938, 0.662 7.250 C 0.940 6.563, 0.940 5.438, 0.662 4.750 C 0.385 4.063, 0.158 4.625, 0.158 6 M 1 9.378 C 1 9.585, 1.788 10.373, 2.750 11.128 C 4.336 12.371, 4.371 12.336, 3.128 10.750 C 1.821 9.084, 1 8.555, 1 9.378 M 53.326 12.750 C 79.630 12.898, 122.380 12.898, 148.326 12.750 C 174.272 12.601, 152.750 12.480, 100.500 12.480 C 48.250 12.480, 27.022 12.601, 53.326 12.750 M 99.872 25.750 C 98.629 27.336, 98.664 27.371, 100.250 26.128 C 101.916 24.821, 102.445 24, 101.622 24 C 101.415 24, 100.627 24.788, 99.872 25.750 M 116 34.393 C 116 34.609, 116.698 35.054, 117.552 35.382 C 118.442 35.723, 118.843 35.555, 118.493 34.989 C 117.906 34.038, 116 33.583, 116 34.393" stroke="none" fill="#3c3c3c" fill-rule="evenodd"/><path d="M 2.200 2.200 C 0.407 3.993, 0.752 8.466, 2.829 10.345 C 4.504 11.861, 12.718 12, 100.461 12 L 196.265 12 198.187 9.784 C 200.215 7.446, 199.943 3.220, 197.671 1.775 C 197.027 1.366, 153.053 1.024, 99.950 1.015 C 26.172 1.004, 3.117 1.283, 2.200 2.200 M 15 24.751 C 15 25.177, 16.575 27.865, 18.500 30.724 C 20.425 33.582, 22 36.389, 22 36.961 C 22 37.532, 22.450 38, 23 38 C 23.550 38, 24 38.399, 24 38.887 C 24 39.696, 34.371 56.861, 42.638 69.735 C 44.487 72.614, 46 75.426, 46 75.985 C 46 76.543, 46.337 77.004, 46.750 77.008 C 47.163 77.012, 47.997 78.025, 48.605 79.258 C 50.178 82.452, 63.734 104.702, 67.140 109.680 C 68.713 111.979, 70 114.304, 70 114.847 C 70 115.389, 70.338 115.983, 70.750 116.167 C 71.162 116.350, 72.289 117.850, 73.253 119.500 C 78.708 128.836, 92.494 151.575, 92.956 152 C 93.504 152.503, 94.038 153.378, 100.705 164.687 C 104.156 170.538, 104.416 170.755, 105.514 168.687 C 106.152 167.484, 109.447 161.877, 112.837 156.226 C 116.227 150.576, 119 145.513, 119 144.976 C 119 144.439, 119.450 144, 120 144 C 120.550 144, 121 143.561, 121 143.024 C 121 142.487, 123.766 137.424, 127.147 131.774 C 130.527 126.123, 134.061 120.150, 135 118.500 C 135.939 116.850, 139.539 110.775, 143 105 C 146.461 99.225, 150.127 93.038, 151.147 91.250 C 152.166 89.463, 153.834 86.538, 154.853 84.750 C 155.873 82.963, 159.539 76.775, 163 71 C 166.461 65.225, 170.061 59.150, 171 57.500 C 171.939 55.850, 175.473 49.877, 178.853 44.226 C 182.234 38.576, 185 33.551, 185 33.060 C 185 32.569, 185.338 32.017, 185.750 31.833 C 186.548 31.479, 190 25.600, 190 24.596 C 190 24.268, 173.826 24, 154.057 24 L 118.113 24 116.557 26.223 C 114.419 29.274, 114.605 31.554, 117.189 33.961 C 119.272 35.902, 120.598 36, 144.689 36 C 158.610 36, 170 36.189, 170 36.421 C 170 36.652, 167.750 40.469, 165 44.903 C 162.250 49.337, 160 53.423, 160 53.982 C 160 54.542, 159.602 55, 159.117 55 C 158.631 55, 157.976 55.788, 157.661 56.750 C 157.346 57.712, 156.009 60.300, 154.689 62.500 C 142.549 82.747, 140 87.176, 140 88.024 C 140 88.561, 139.660 89, 139.244 89 C 138.828 89, 137.940 90.237, 137.270 91.750 C 136.601 93.263, 133.779 98.100, 131 102.500 C 128.221 106.900, 125.399 111.737, 124.730 113.250 C 124.060 114.762, 123.172 116, 122.756 116 C 122.340 116, 122 116.423, 122 116.941 C 122 117.459, 119.412 122.264, 116.250 127.620 L 110.500 137.359 110 82.332 C 109.466 23.527, 109.510 24, 104.552 24 C 103.340 24, 101.370 25.042, 100.174 26.314 L 98 28.629 97.994 83.564 C 97.989 130.476, 97.789 138.135, 96.626 136 C 94.129 131.417, 80.759 109.558, 77.860 105.320 C 76.287 103.021, 75 100.696, 75 100.153 C 75 99.611, 74.662 99.017, 74.250 98.833 C 73.838 98.650, 72.711 97.150, 71.747 95.500 C 66.292 86.164, 52.506 63.425, 52.044 63 C 51.745 62.725, 50.938 61.487, 50.250 60.250 C 47.629 55.532, 46.474 53.567, 45.726 52.551 C 43.486 49.506, 36.040 37.397, 36.021 36.767 C 36.010 36.365, 47.089 35.915, 60.643 35.767 L 85.286 35.500 87.338 32.750 L 89.391 30 87.338 27.250 L 85.285 24.500 50.142 24.237 C 30.814 24.093, 15 24.324, 15 24.751" stroke="none" fill="#FFF" fill-rule="evenodd"/></svg>